<mxfile host="app.diagrams.net" modified="2021-12-15T09:15:05.560Z" agent="5.0 (Windows NT 10.0; WOW64) AppleWebKit/537.36 (KHTML, like Gecko) Chrome/94.0.4606.81 Safari/537.36" etag="qEOvVYb82FY7iYikAxGX" version="15.8.3" type="github">
  <diagram id="U7Htat9r2wbK2FyTGD_Q" name="Page-1">
    <mxGraphModel dx="1422" dy="794" grid="1" gridSize="10" guides="1" tooltips="1" connect="1" arrows="1" fold="1" page="1" pageScale="1" pageWidth="827" pageHeight="1169" math="0" shadow="0">
      <root>
        <mxCell id="0" />
        <mxCell id="1" parent="0" />
        <mxCell id="oi-isDemWPMRGUlYNJqB-1" value="开始" style="shape=mxgraph.flowchart.terminator;strokeWidth=2;gradientColor=none;gradientDirection=north;fontStyle=1;html=1;fontSize=16;" vertex="1" parent="1">
          <mxGeometry x="260" y="76" width="120" height="30" as="geometry" />
        </mxCell>
        <mxCell id="oi-isDemWPMRGUlYNJqB-2" value="交通仿真" style="shape=mxgraph.flowchart.data;strokeWidth=2;gradientColor=none;gradientDirection=north;fontStyle=1;html=1;fontSize=16;" vertex="1" parent="1">
          <mxGeometry x="240.5" y="130" width="159" height="80" as="geometry" />
        </mxCell>
        <mxCell id="oi-isDemWPMRGUlYNJqB-3" value="开始推送" style="shape=mxgraph.flowchart.data;strokeWidth=2;gradientColor=none;gradientDirection=north;fontStyle=1;html=1;fontSize=16;" vertex="1" parent="1">
          <mxGeometry x="240.5" y="540" width="159" height="80" as="geometry" />
        </mxCell>
        <mxCell id="oi-isDemWPMRGUlYNJqB-4" value="开启推送服务" style="shape=mxgraph.flowchart.data;strokeWidth=2;gradientColor=none;gradientDirection=north;fontStyle=1;html=1;fontSize=16;" vertex="1" parent="1">
          <mxGeometry x="240.5" y="233" width="159" height="80" as="geometry" />
        </mxCell>
        <mxCell id="oi-isDemWPMRGUlYNJqB-5" value="是否成功" style="shape=mxgraph.flowchart.decision;strokeWidth=2;gradientColor=none;gradientDirection=north;fontStyle=1;html=1;fontSize=16;" vertex="1" parent="1">
          <mxGeometry x="270" y="443" width="98" height="57" as="geometry" />
        </mxCell>
        <mxCell id="oi-isDemWPMRGUlYNJqB-6" style="fontStyle=1;strokeColor=#003366;strokeWidth=1;html=1;fontSize=16;" edge="1" parent="1" source="oi-isDemWPMRGUlYNJqB-1" target="oi-isDemWPMRGUlYNJqB-2">
          <mxGeometry relative="1" as="geometry" />
        </mxCell>
        <mxCell id="oi-isDemWPMRGUlYNJqB-7" style="fontStyle=1;strokeColor=#003366;strokeWidth=1;html=1;fontSize=16;" edge="1" parent="1" source="oi-isDemWPMRGUlYNJqB-2" target="oi-isDemWPMRGUlYNJqB-4">
          <mxGeometry relative="1" as="geometry" />
        </mxCell>
        <mxCell id="oi-isDemWPMRGUlYNJqB-8" style="fontStyle=1;strokeColor=#003366;strokeWidth=1;html=1;fontSize=16;" edge="1" parent="1" source="oi-isDemWPMRGUlYNJqB-4" target="oi-isDemWPMRGUlYNJqB-55">
          <mxGeometry relative="1" as="geometry" />
        </mxCell>
        <mxCell id="oi-isDemWPMRGUlYNJqB-9" value="" style="edgeStyle=elbowEdgeStyle;elbow=horizontal;entryX=0.5;entryY=0.91;entryPerimeter=0;exitX=1;exitY=0.5;exitPerimeter=0;fontStyle=1;strokeColor=#003366;strokeWidth=1;html=1;fontSize=16;" edge="1" parent="1" source="oi-isDemWPMRGUlYNJqB-5" target="oi-isDemWPMRGUlYNJqB-49">
          <mxGeometry x="381" y="-7.5" width="100" height="100" as="geometry">
            <mxPoint x="750" y="411" as="sourcePoint" />
            <mxPoint x="765.395" y="282.5" as="targetPoint" />
            <Array as="points">
              <mxPoint x="545" y="364" />
            </Array>
          </mxGeometry>
        </mxCell>
        <mxCell id="oi-isDemWPMRGUlYNJqB-10" value="否" style="text;fontStyle=1;html=1;strokeColor=none;gradientColor=none;fillColor=none;strokeWidth=2;fontSize=16;" vertex="1" parent="1">
          <mxGeometry x="370" y="440" width="40" height="26" as="geometry" />
        </mxCell>
        <mxCell id="oi-isDemWPMRGUlYNJqB-11" value="" style="edgeStyle=elbowEdgeStyle;elbow=horizontal;fontColor=#001933;fontStyle=1;strokeColor=#003366;strokeWidth=1;html=1;fontSize=16;" edge="1" parent="1" source="oi-isDemWPMRGUlYNJqB-5" target="oi-isDemWPMRGUlYNJqB-3">
          <mxGeometry y="50" width="100" height="100" as="geometry">
            <mxPoint y="150" as="sourcePoint" />
            <mxPoint x="100" y="50" as="targetPoint" />
          </mxGeometry>
        </mxCell>
        <mxCell id="oi-isDemWPMRGUlYNJqB-12" value="打开三维前端" style="shape=mxgraph.flowchart.data;strokeWidth=2;gradientColor=none;gradientDirection=north;fontStyle=1;html=1;fontSize=16;" vertex="1" parent="1">
          <mxGeometry x="240.5" y="650" width="159" height="80" as="geometry" />
        </mxCell>
        <mxCell id="oi-isDemWPMRGUlYNJqB-13" value="是" style="text;fontStyle=1;html=1;strokeColor=none;gradientColor=none;fillColor=none;strokeWidth=2;align=center;fontSize=16;" vertex="1" parent="1">
          <mxGeometry x="320" y="497" width="40" height="26" as="geometry" />
        </mxCell>
        <mxCell id="oi-isDemWPMRGUlYNJqB-14" value="推送地址" style="shape=mxgraph.flowchart.document;strokeWidth=2;gradientColor=none;gradientDirection=north;fontStyle=1;html=1;fontSize=16;" vertex="1" parent="1">
          <mxGeometry x="480" y="545" width="140" height="70" as="geometry" />
        </mxCell>
        <mxCell id="oi-isDemWPMRGUlYNJqB-15" value="" style="edgeStyle=elbowEdgeStyle;elbow=horizontal;exitX=0.905;exitY=0.5;exitPerimeter=0;fontStyle=1;strokeColor=#003366;strokeWidth=1;html=1;startArrow=classic;startFill=1;endArrow=none;endFill=0;fontSize=16;" edge="1" parent="1" source="oi-isDemWPMRGUlYNJqB-3" target="oi-isDemWPMRGUlYNJqB-14">
          <mxGeometry y="30" width="100" height="100" as="geometry">
            <mxPoint y="130" as="sourcePoint" />
            <mxPoint x="100" y="30" as="targetPoint" />
          </mxGeometry>
        </mxCell>
        <mxCell id="oi-isDemWPMRGUlYNJqB-16" value="" style="edgeStyle=elbowEdgeStyle;elbow=horizontal;fontStyle=1;strokeColor=#003366;strokeWidth=1;html=1;fontSize=16;" edge="1" parent="1" source="oi-isDemWPMRGUlYNJqB-3" target="oi-isDemWPMRGUlYNJqB-12">
          <mxGeometry y="30" width="100" height="100" as="geometry">
            <mxPoint y="130" as="sourcePoint" />
            <mxPoint x="100" y="30" as="targetPoint" />
          </mxGeometry>
        </mxCell>
        <mxCell id="oi-isDemWPMRGUlYNJqB-20" value="" style="edgeStyle=elbowEdgeStyle;elbow=horizontal;entryX=0.5;entryY=0.195;entryPerimeter=0;fontStyle=1;strokeColor=#003366;strokeWidth=1;html=1;fontSize=16;" edge="1" parent="1" source="oi-isDemWPMRGUlYNJqB-12">
          <mxGeometry y="-93" width="100" height="100" as="geometry">
            <mxPoint y="7" as="sourcePoint" />
            <mxPoint x="321" y="761.5999999999999" as="targetPoint" />
          </mxGeometry>
        </mxCell>
        <mxCell id="oi-isDemWPMRGUlYNJqB-21" value="检查是否有车流" style="shape=mxgraph.flowchart.document;strokeWidth=2;gradientColor=none;gradientDirection=north;fontStyle=1;html=1;fontSize=16;" vertex="1" parent="1">
          <mxGeometry x="240.5" y="763" width="159" height="90" as="geometry" />
        </mxCell>
        <mxCell id="oi-isDemWPMRGUlYNJqB-23" value="是否有车流" style="shape=mxgraph.flowchart.decision;strokeWidth=2;gradientColor=none;gradientDirection=north;fontStyle=1;html=1;fontSize=16;" vertex="1" parent="1">
          <mxGeometry x="261.5" y="884" width="119" height="78.5" as="geometry" />
        </mxCell>
        <mxCell id="oi-isDemWPMRGUlYNJqB-24" value="" style="edgeStyle=elbowEdgeStyle;elbow=horizontal;exitX=0.5;exitY=0.9;exitPerimeter=0;fontStyle=1;strokeColor=#003366;strokeWidth=1;html=1;fontSize=16;" edge="1" parent="1" source="oi-isDemWPMRGUlYNJqB-21" target="oi-isDemWPMRGUlYNJqB-23">
          <mxGeometry y="-187" width="100" height="100" as="geometry">
            <mxPoint y="-87" as="sourcePoint" />
            <mxPoint x="100" y="-187" as="targetPoint" />
          </mxGeometry>
        </mxCell>
        <mxCell id="oi-isDemWPMRGUlYNJqB-25" value="是" style="text;fontStyle=1;html=1;strokeColor=none;gradientColor=none;fillColor=none;strokeWidth=2;fontSize=16;" vertex="1" parent="1">
          <mxGeometry x="280" y="948.5" width="40" height="26" as="geometry" />
        </mxCell>
        <mxCell id="oi-isDemWPMRGUlYNJqB-26" value="是否有车牌" style="shape=mxgraph.flowchart.decision;strokeWidth=2;gradientColor=none;gradientDirection=north;fontStyle=1;html=1;fontSize=16;" vertex="1" parent="1">
          <mxGeometry x="255" y="986" width="130" height="100" as="geometry" />
        </mxCell>
        <mxCell id="oi-isDemWPMRGUlYNJqB-27" value="车牌正确性" style="shape=mxgraph.flowchart.decision;strokeWidth=2;gradientColor=none;gradientDirection=north;fontStyle=1;html=1;fontSize=16;" vertex="1" parent="1">
          <mxGeometry x="510" y="986" width="130" height="100" as="geometry" />
        </mxCell>
        <mxCell id="oi-isDemWPMRGUlYNJqB-28" value="" style="edgeStyle=elbowEdgeStyle;elbow=horizontal;exitX=0.5;exitY=1;exitPerimeter=0;fontStyle=1;strokeColor=#003366;strokeWidth=1;html=1;fontSize=16;" edge="1" parent="1" source="oi-isDemWPMRGUlYNJqB-23" target="oi-isDemWPMRGUlYNJqB-26">
          <mxGeometry y="-210" width="100" height="100" as="geometry">
            <mxPoint y="-110" as="sourcePoint" />
            <mxPoint x="100" y="-210" as="targetPoint" />
          </mxGeometry>
        </mxCell>
        <mxCell id="oi-isDemWPMRGUlYNJqB-29" value="" style="edgeStyle=elbowEdgeStyle;elbow=horizontal;exitX=1;exitY=0.5;exitPerimeter=0;entryX=0;entryY=0.5;entryPerimeter=0;fontStyle=1;strokeColor=#003366;strokeWidth=1;html=1;fontSize=16;" edge="1" parent="1" source="oi-isDemWPMRGUlYNJqB-26" target="oi-isDemWPMRGUlYNJqB-27">
          <mxGeometry y="-224" width="100" height="100" as="geometry">
            <mxPoint y="-124" as="sourcePoint" />
            <mxPoint x="100" y="-224" as="targetPoint" />
          </mxGeometry>
        </mxCell>
        <mxCell id="oi-isDemWPMRGUlYNJqB-30" value="结束" style="shape=mxgraph.flowchart.merge_or_storage;strokeWidth=2;gradientColor=none;gradientDirection=north;fontStyle=1;html=1;fontSize=16;" vertex="1" parent="1">
          <mxGeometry x="760" y="1076" width="130" height="80.5" as="geometry" />
        </mxCell>
        <mxCell id="oi-isDemWPMRGUlYNJqB-31" value="" style="edgeStyle=elbowEdgeStyle;elbow=vertical;exitX=1;exitY=0.5;exitPerimeter=0;entryX=0.5;entryY=0;entryPerimeter=0;fontStyle=1;strokeColor=#003366;strokeWidth=1;html=1;fontSize=16;" edge="1" parent="1" source="oi-isDemWPMRGUlYNJqB-27" target="oi-isDemWPMRGUlYNJqB-30">
          <mxGeometry y="-224" width="100" height="100" as="geometry">
            <mxPoint y="-124" as="sourcePoint" />
            <mxPoint x="100" y="-224" as="targetPoint" />
            <Array as="points">
              <mxPoint x="740" y="1036" />
            </Array>
          </mxGeometry>
        </mxCell>
        <mxCell id="oi-isDemWPMRGUlYNJqB-32" value="检查log" style="shape=mxgraph.flowchart.data;strokeWidth=2;gradientColor=none;gradientDirection=north;fontStyle=1;html=1;fontSize=16;" vertex="1" parent="1">
          <mxGeometry x="240.5" y="1150" width="159" height="80" as="geometry" />
        </mxCell>
        <mxCell id="oi-isDemWPMRGUlYNJqB-33" value="" style="edgeStyle=elbowEdgeStyle;elbow=vertical;exitX=0.5;exitY=1;exitPerimeter=0;fontColor=#001933;fontStyle=1;strokeColor=#003366;strokeWidth=1;html=1;fontSize=16;" edge="1" parent="1" source="oi-isDemWPMRGUlYNJqB-26" target="oi-isDemWPMRGUlYNJqB-32">
          <mxGeometry y="-224" width="100" height="100" as="geometry">
            <mxPoint y="-124" as="sourcePoint" />
            <mxPoint x="100" y="-224" as="targetPoint" />
          </mxGeometry>
        </mxCell>
        <mxCell id="oi-isDemWPMRGUlYNJqB-34" value="" style="edgeStyle=elbowEdgeStyle;elbow=vertical;exitX=0.5;exitY=1;exitPerimeter=0;entryX=0.5;entryY=0;entryPerimeter=0;fontStyle=1;strokeColor=#003366;strokeWidth=1;html=1;fontSize=16;" edge="1" parent="1" source="oi-isDemWPMRGUlYNJqB-27" target="oi-isDemWPMRGUlYNJqB-32">
          <mxGeometry y="-224" width="100" height="100" as="geometry">
            <mxPoint y="-124" as="sourcePoint" />
            <mxPoint x="100" y="-224" as="targetPoint" />
          </mxGeometry>
        </mxCell>
        <mxCell id="oi-isDemWPMRGUlYNJqB-35" value="是否有问题" style="shape=mxgraph.flowchart.decision;strokeWidth=2;gradientColor=none;gradientDirection=north;fontStyle=1;html=1;fontSize=16;" vertex="1" parent="1">
          <mxGeometry x="271" y="1263.5" width="98" height="57" as="geometry" />
        </mxCell>
        <mxCell id="oi-isDemWPMRGUlYNJqB-36" value="交供应商" style="shape=mxgraph.flowchart.data;strokeWidth=2;gradientColor=none;gradientDirection=north;fontStyle=1;html=1;fontSize=16;" vertex="1" parent="1">
          <mxGeometry x="240.5" y="1350" width="159" height="80" as="geometry" />
        </mxCell>
        <mxCell id="oi-isDemWPMRGUlYNJqB-37" value="问题归档" style="shape=mxgraph.flowchart.predefined_process;strokeWidth=2;gradientColor=none;gradientDirection=north;fontStyle=1;html=1;fontSize=16;" vertex="1" parent="1">
          <mxGeometry x="560" y="1345" width="190" height="90" as="geometry" />
        </mxCell>
        <mxCell id="oi-isDemWPMRGUlYNJqB-38" value="结束" style="shape=mxgraph.flowchart.terminator;strokeWidth=2;gradientColor=none;gradientDirection=north;fontStyle=1;html=1;fontSize=16;" vertex="1" parent="1">
          <mxGeometry x="260" y="1458" width="120" height="30" as="geometry" />
        </mxCell>
        <mxCell id="oi-isDemWPMRGUlYNJqB-39" value="" style="edgeStyle=elbowEdgeStyle;elbow=vertical;exitX=0.5;exitY=1;exitPerimeter=0;entryX=0.5;entryY=0;entryPerimeter=0;fontStyle=1;strokeColor=#003366;strokeWidth=1;html=1;fontSize=16;" edge="1" parent="1" source="oi-isDemWPMRGUlYNJqB-32" target="oi-isDemWPMRGUlYNJqB-35">
          <mxGeometry y="-255" width="100" height="100" as="geometry">
            <mxPoint y="-155" as="sourcePoint" />
            <mxPoint x="100" y="-255" as="targetPoint" />
          </mxGeometry>
        </mxCell>
        <mxCell id="oi-isDemWPMRGUlYNJqB-40" value="" style="edgeStyle=elbowEdgeStyle;elbow=vertical;exitX=0.5;exitY=1;exitPerimeter=0;entryX=0.5;entryY=0;entryPerimeter=0;fontStyle=1;strokeColor=#003366;strokeWidth=1;html=1;fontSize=16;" edge="1" parent="1" source="oi-isDemWPMRGUlYNJqB-35" target="oi-isDemWPMRGUlYNJqB-36">
          <mxGeometry y="-358" width="100" height="100" as="geometry">
            <mxPoint y="-258" as="sourcePoint" />
            <mxPoint x="100" y="-358" as="targetPoint" />
          </mxGeometry>
        </mxCell>
        <mxCell id="oi-isDemWPMRGUlYNJqB-41" value="" style="edgeStyle=elbowEdgeStyle;elbow=vertical;exitX=0.5;exitY=1;exitPerimeter=0;entryX=0.5;entryY=0;entryPerimeter=0;fontStyle=1;strokeColor=#003366;strokeWidth=1;html=1;fontSize=16;" edge="1" parent="1" source="oi-isDemWPMRGUlYNJqB-36" target="oi-isDemWPMRGUlYNJqB-38">
          <mxGeometry y="-380" width="100" height="100" as="geometry">
            <mxPoint y="-280" as="sourcePoint" />
            <mxPoint x="100" y="-380" as="targetPoint" />
          </mxGeometry>
        </mxCell>
        <mxCell id="oi-isDemWPMRGUlYNJqB-42" value="" style="edgeStyle=elbowEdgeStyle;elbow=vertical;exitX=0.905;exitY=0.5;exitPerimeter=0;entryX=0;entryY=0.5;entryPerimeter=0;fontStyle=1;strokeColor=#003366;strokeWidth=1;html=1;fontSize=16;" edge="1" parent="1" source="oi-isDemWPMRGUlYNJqB-36" target="oi-isDemWPMRGUlYNJqB-37">
          <mxGeometry y="-380" width="100" height="100" as="geometry">
            <mxPoint y="-280" as="sourcePoint" />
            <mxPoint x="100" y="-380" as="targetPoint" />
          </mxGeometry>
        </mxCell>
        <mxCell id="oi-isDemWPMRGUlYNJqB-43" value="" style="edgeStyle=elbowEdgeStyle;elbow=horizontal;exitX=1;exitY=0.5;exitPerimeter=0;entryX=0.905;entryY=0.5;entryPerimeter=0;fontStyle=1;strokeColor=#003366;strokeWidth=1;html=1;fontSize=16;" edge="1" parent="1" source="oi-isDemWPMRGUlYNJqB-23" target="oi-isDemWPMRGUlYNJqB-32">
          <mxGeometry y="-210" width="100" height="100" as="geometry">
            <mxPoint y="-110" as="sourcePoint" />
            <mxPoint x="100" y="-210" as="targetPoint" />
            <Array as="points">
              <mxPoint x="950" y="1110" />
            </Array>
          </mxGeometry>
        </mxCell>
        <mxCell id="oi-isDemWPMRGUlYNJqB-44" value="否" style="text;fontStyle=1;html=1;strokeColor=none;gradientColor=none;fillColor=none;strokeWidth=2;fontSize=16;" vertex="1" parent="1">
          <mxGeometry x="380.5" y="883.25" width="40" height="26" as="geometry" />
        </mxCell>
        <mxCell id="oi-isDemWPMRGUlYNJqB-45" value="是" style="text;fontColor=#001933;fontStyle=1;html=1;strokeColor=none;gradientColor=none;fillColor=none;strokeWidth=2;fontSize=16;" vertex="1" parent="1">
          <mxGeometry x="385" y="1010" width="40" height="26" as="geometry" />
        </mxCell>
        <mxCell id="oi-isDemWPMRGUlYNJqB-46" value="否" style="text;fontColor=#001933;fontStyle=1;html=1;strokeColor=none;gradientColor=none;fillColor=none;strokeWidth=2;align=center;fontSize=16;" vertex="1" parent="1">
          <mxGeometry x="320" y="1086" width="40" height="26" as="geometry" />
        </mxCell>
        <mxCell id="oi-isDemWPMRGUlYNJqB-47" value="不正确" style="text;fontColor=#001933;fontStyle=1;html=1;strokeColor=none;gradientColor=none;fillColor=none;strokeWidth=2;align=center;fontSize=16;" vertex="1" parent="1">
          <mxGeometry x="575" y="1086" width="40" height="26" as="geometry" />
        </mxCell>
        <mxCell id="oi-isDemWPMRGUlYNJqB-48" value="正确" style="text;fontColor=#001933;fontStyle=1;html=1;strokeColor=none;gradientColor=none;fillColor=none;strokeWidth=2;fontSize=16;" vertex="1" parent="1">
          <mxGeometry x="640" y="1010" width="40" height="26" as="geometry" />
        </mxCell>
        <mxCell id="oi-isDemWPMRGUlYNJqB-49" value="关闭重启" style="shape=mxgraph.flowchart.paper_tape;strokeWidth=2;gradientColor=none;gradientDirection=north;fontStyle=1;html=1;fontSize=16;" vertex="1" parent="1">
          <mxGeometry x="481" y="318" width="150" height="81" as="geometry" />
        </mxCell>
        <mxCell id="oi-isDemWPMRGUlYNJqB-50" value="" style="edgeStyle=elbowEdgeStyle;elbow=horizontal;exitX=0.5;exitY=0.09;exitPerimeter=0;entryX=0.905;entryY=0.5;entryPerimeter=0;fontStyle=1;strokeColor=#003366;strokeWidth=1;html=1;fontSize=16;" edge="1" parent="1" source="oi-isDemWPMRGUlYNJqB-49" target="oi-isDemWPMRGUlYNJqB-4">
          <mxGeometry y="-17" width="100" height="100" as="geometry">
            <mxPoint y="83" as="sourcePoint" />
            <mxPoint x="100" y="-17" as="targetPoint" />
            <Array as="points">
              <mxPoint x="545" y="283" />
            </Array>
          </mxGeometry>
        </mxCell>
        <mxCell id="oi-isDemWPMRGUlYNJqB-51" value="是" style="text;fontStyle=1;html=1;strokeColor=none;gradientColor=none;fillColor=none;strokeWidth=2;align=center;fontSize=16;" vertex="1" parent="1">
          <mxGeometry x="321" y="1322" width="40" height="26" as="geometry" />
        </mxCell>
        <mxCell id="oi-isDemWPMRGUlYNJqB-52" value="" style="edgeStyle=elbowEdgeStyle;elbow=horizontal;exitX=0;exitY=0.5;exitPerimeter=0;entryX=0.095;entryY=0.5;entryPerimeter=0;fontStyle=1;strokeColor=#003366;strokeWidth=1;html=1;fontSize=16;" edge="1" parent="1" source="oi-isDemWPMRGUlYNJqB-35" target="oi-isDemWPMRGUlYNJqB-4">
          <mxGeometry y="-17" width="100" height="100" as="geometry">
            <mxPoint y="83" as="sourcePoint" />
            <mxPoint x="100" y="-17" as="targetPoint" />
            <Array as="points">
              <mxPoint x="120" y="953" />
            </Array>
          </mxGeometry>
        </mxCell>
        <mxCell id="oi-isDemWPMRGUlYNJqB-53" value="否" style="text;fontStyle=1;html=1;strokeColor=none;gradientColor=none;fillColor=none;strokeWidth=2;fontSize=16;" vertex="1" parent="1">
          <mxGeometry x="235" y="1266" width="40" height="26" as="geometry" />
        </mxCell>
        <mxCell id="oi-isDemWPMRGUlYNJqB-54" value="" style="edgeStyle=orthogonalEdgeStyle;rounded=0;orthogonalLoop=1;jettySize=auto;html=1;fontSize=16;fontStyle=1" edge="1" parent="1" source="oi-isDemWPMRGUlYNJqB-55" target="oi-isDemWPMRGUlYNJqB-5">
          <mxGeometry relative="1" as="geometry" />
        </mxCell>
        <mxCell id="oi-isDemWPMRGUlYNJqB-55" value="检查数据情况" style="shape=mxgraph.flowchart.data;strokeWidth=2;gradientColor=none;gradientDirection=north;fontStyle=1;html=1;fontSize=16;" vertex="1" parent="1">
          <mxGeometry x="240" y="338" width="159" height="80" as="geometry" />
        </mxCell>
      </root>
    </mxGraphModel>
  </diagram>
</mxfile>
